<svg width="394" height="490" viewBox="0 0 394 490" fill="none" xmlns="http://www.w3.org/2000/svg">
<path d="M205.179 433.304H189.834H175.864H152.677L113.256 433.232C113.215 433.24 113.173 433.235 113.134 433.219C113.095 433.202 113.059 433.175 113.03 433.138C113.001 433.101 112.979 433.057 112.966 433.007C112.953 432.958 112.949 432.906 112.955 432.854C112.754 416.803 112.726 400.764 112.869 384.737C112.87 384.675 112.882 384.613 112.905 384.557C112.929 384.497 112.97 384.449 113.02 384.423H123.405H126.609H141.045H153.896L165.686 384.297H171.499L200.578 384.414L205.337 384.459C205.384 384.468 205.432 384.463 205.477 384.445C205.522 384.426 205.563 384.395 205.596 384.353C205.63 384.31 205.655 384.259 205.67 384.202C205.685 384.146 205.688 384.086 205.681 384.027L205.545 330.588L205.452 324.402C205.456 324.35 205.452 324.298 205.438 324.249C205.424 324.199 205.401 324.155 205.371 324.118C205.342 324.082 205.306 324.055 205.266 324.038C205.227 324.022 205.185 324.017 205.143 324.024L190.859 324.186H145.152H131.282L127.233 323.997L110.654 324.204H92.3773C92.338 324.197 92.2979 324.201 92.2601 324.217C92.2223 324.232 92.1878 324.258 92.1594 324.293C92.1309 324.328 92.1093 324.37 92.0961 324.417C92.0829 324.464 92.0786 324.514 92.0834 324.564V355.455C92.0775 355.51 92.0818 355.566 92.0959 355.618C92.11 355.671 92.1336 355.719 92.1648 355.758C92.196 355.797 92.234 355.826 92.2759 355.844C92.3177 355.862 92.3622 355.867 92.406 355.86L102.44 355.986C102.504 355.999 102.57 355.994 102.632 355.97C102.694 355.945 102.75 355.903 102.797 355.846C102.843 355.789 102.878 355.719 102.898 355.641C102.918 355.564 102.924 355.482 102.914 355.401V338.157C102.906 338.11 102.906 338.061 102.914 338.014C102.928 337.972 102.95 337.935 102.978 337.906C103 337.869 103.03 337.841 103.064 337.825C103.102 337.815 103.141 337.815 103.179 337.825H114.883H150.835H161.587H175.563L194.65 337.753L194.729 370.361C194.735 370.413 194.731 370.466 194.718 370.515C194.705 370.565 194.683 370.61 194.654 370.647C194.625 370.685 194.59 370.713 194.55 370.731C194.511 370.748 194.469 370.754 194.428 370.748H193.417L180.645 370.811C180.401 370.811 180.287 370.667 180.287 370.37V352.389C180.287 352.239 180.239 352.095 180.154 351.989C180.07 351.883 179.955 351.823 179.835 351.823H177.57H169.578C169.539 351.815 169.499 351.819 169.462 351.835C169.424 351.85 169.39 351.876 169.362 351.911C169.334 351.947 169.313 351.989 169.301 352.036C169.289 352.084 169.286 352.134 169.292 352.183V370.325C169.292 370.425 169.261 370.521 169.207 370.593C169.152 370.665 169.077 370.707 168.998 370.712L163.314 370.919L151.058 370.658L125.541 370.865L120.245 370.712H102.39C102.345 370.705 102.3 370.711 102.257 370.729C102.214 370.747 102.175 370.777 102.142 370.817C102.11 370.857 102.085 370.905 102.07 370.959C102.054 371.012 102.049 371.069 102.053 371.126L102.268 433.295H89.3884C89.331 433.305 89.2723 433.299 89.2172 433.276C89.162 433.253 89.1119 433.214 89.0708 433.163C89.0297 433.111 88.9988 433.049 88.9805 432.979C88.9623 432.91 88.9571 432.837 88.9656 432.764L88.7721 402.493C88.778 402.431 88.7724 402.367 88.7557 402.307C88.7389 402.248 88.7115 402.194 88.6755 402.149C88.6395 402.105 88.5959 402.072 88.548 402.052C88.5001 402.032 88.4493 402.026 88.3994 402.035L77.1249 402.089H67.1907L54.6906 402.296L54.4541 399.823L54.5329 384.432L54.3681 344.37V285.033L54.5329 277.256H86.6648H111.149H146.148C146.237 277.288 146.331 277.288 146.42 277.256L179.663 277.166C179.706 277.173 179.749 277.168 179.79 277.151C179.831 277.134 179.869 277.105 179.899 277.067C179.93 277.028 179.953 276.982 179.967 276.93C179.98 276.879 179.984 276.824 179.978 276.77L180.115 248.531C180.109 248.48 180.113 248.427 180.126 248.377C180.139 248.328 180.16 248.283 180.189 248.245C180.219 248.208 180.254 248.18 180.293 248.162C180.332 248.145 180.374 248.139 180.416 248.145L192.529 248.091L194.45 248.154C194.492 248.148 194.535 248.154 194.575 248.172C194.615 248.19 194.651 248.219 194.681 248.257C194.71 248.295 194.733 248.341 194.746 248.392C194.759 248.443 194.763 248.496 194.758 248.549V254.195V276.887C194.752 276.94 194.756 276.993 194.769 277.044C194.782 277.094 194.805 277.14 194.835 277.177C194.865 277.215 194.901 277.243 194.941 277.26C194.981 277.277 195.024 277.281 195.066 277.274H204.986C205.05 277.286 205.116 277.279 205.178 277.254C205.239 277.228 205.296 277.185 205.342 277.127C205.388 277.069 205.422 276.999 205.443 276.921C205.463 276.844 205.469 276.761 205.459 276.68V235.055C205.466 234.99 205.461 234.924 205.444 234.862C205.428 234.8 205.4 234.744 205.363 234.698C205.327 234.652 205.282 234.617 205.232 234.596C205.183 234.575 205.13 234.569 205.079 234.578L200.298 234.641L195.367 234.515L169.313 234.74L115.12 234.506H104.189H93.4022H79.0028C78.9578 234.515 78.9117 234.511 78.8683 234.494C78.8249 234.476 78.7854 234.446 78.7532 234.406C78.7209 234.365 78.6969 234.316 78.6829 234.261C78.669 234.207 78.6656 234.149 78.6731 234.093L78.6157 198.94L78.415 187.405L78.6659 172.283L78.5727 159.903C78.567 159.84 78.5727 159.776 78.5894 159.716C78.6061 159.656 78.6334 159.602 78.6692 159.557C78.7051 159.512 78.7485 159.477 78.7963 159.456C78.8441 159.436 78.8951 159.428 78.9454 159.436L103.315 159.283L155.573 159.364L167.521 159.238L179.706 159.364C179.743 159.371 179.782 159.367 179.818 159.353C179.854 159.338 179.887 159.314 179.914 159.281C179.941 159.247 179.962 159.207 179.974 159.162C179.987 159.117 179.99 159.069 179.986 159.022V89.5254C179.992 89.4067 179.961 89.2896 179.899 89.199C179.837 89.1084 179.75 89.0514 179.656 89.04C179.611 89.03 179.565 89.0312 179.521 89.0436C179.477 89.0559 179.435 89.0791 179.398 89.1119L177.283 89.0579L169.349 89.2467H160.497H154.204L103.265 89.0939L103.107 77.676C103.064 76.3094 103.043 74.9339 103.057 73.5403C103.057 73.1897 103.129 72.956 103.25 72.8571C103.363 72.7862 103.489 72.7539 103.615 72.7634C103.74 72.7728 103.862 72.8238 103.967 72.911L148.463 72.7582L163.228 72.956L178.767 72.7132L188.845 72.7672H205.172C205.214 72.7747 205.257 72.7699 205.297 72.7531C205.337 72.7363 205.373 72.7081 205.403 72.6705C205.433 72.633 205.456 72.5873 205.469 72.537C205.482 72.4866 205.486 72.4331 205.48 72.3806V59.4882C205.488 59.4339 205.484 59.3781 205.471 59.3255C205.458 59.2729 205.435 59.225 205.404 59.1856C205.374 59.1462 205.336 59.1164 205.294 59.0987C205.253 59.081 205.208 59.0758 205.165 59.0836L189.26 59.2994L179.563 59.0746L160.856 59.2994H139.898L110.181 59.0926H92.5278C92.4881 59.0869 92.4479 59.0925 92.4102 59.1089C92.3724 59.1254 92.3381 59.1524 92.3099 59.1879C92.2816 59.2233 92.2601 59.2663 92.247 59.3136C92.2338 59.361 92.2294 59.4114 92.2339 59.4612V102.193C92.2294 102.243 92.2338 102.293 92.247 102.341C92.2601 102.388 92.2816 102.431 92.3099 102.466C92.3381 102.502 92.3724 102.529 92.4102 102.545C92.4479 102.562 92.4881 102.567 92.5278 102.562H100.72H105.508H154.491H156.003L160.253 102.517H169.127V145.302C169.134 145.358 169.131 145.415 169.117 145.469C169.103 145.522 169.08 145.571 169.049 145.611C169.017 145.652 168.979 145.682 168.936 145.7C168.894 145.718 168.849 145.724 168.804 145.716L155.573 145.824L119.377 145.878L81.9844 145.725L78.6301 145.779L78.5297 129.965H95.1081L108.339 129.704L111.995 129.776H157.687C157.728 129.783 157.77 129.779 157.809 129.763C157.849 129.746 157.884 129.719 157.914 129.682C157.943 129.645 157.965 129.601 157.978 129.551C157.991 129.502 157.995 129.45 157.989 129.398V116.497C157.995 116.444 157.991 116.391 157.977 116.341C157.964 116.29 157.941 116.244 157.911 116.207C157.882 116.169 157.845 116.141 157.805 116.124C157.765 116.108 157.722 116.103 157.68 116.11H122.273H113.729H97.6741L78.5799 116.182L78.4724 109.161V93.3824V76.732V42.7389C78.4724 42.6284 78.5069 42.5223 78.5685 42.4433C78.6301 42.3643 78.714 42.3187 78.8021 42.3164H85.2887L114.933 42.4872L140.887 42.2624H178.38H204.957C205.076 42.2625 205.189 42.204 205.274 42.0997C205.358 41.9955 205.407 41.8537 205.409 41.705V21.6742L205.387 2.94701C205.394 2.88352 205.39 2.81881 205.373 2.75798C205.357 2.69716 205.33 2.64189 205.294 2.59654C205.258 2.5512 205.214 2.51701 205.165 2.4967C205.117 2.47639 205.065 2.4705 205.014 2.4795H202.642H183.29L158.325 2.56941C158.276 2.56036 158.225 2.56597 158.177 2.58582C158.13 2.60566 158.086 2.63919 158.051 2.68371C158.015 2.72824 157.989 2.78252 157.973 2.84228C157.957 2.90204 157.953 2.96561 157.96 3.02792V14.8864C157.953 14.9463 157.957 15.0076 157.972 15.0652C157.987 15.1229 158.012 15.1752 158.047 15.2181C158.081 15.261 158.123 15.2932 158.168 15.3121C158.214 15.331 158.263 15.3361 158.311 15.3269L182.078 15.246L194.113 15.3089C194.157 15.3018 194.201 15.3073 194.244 15.325C194.286 15.3427 194.324 15.3721 194.356 15.411C194.387 15.45 194.412 15.4974 194.427 15.5498C194.442 15.6022 194.447 15.6581 194.442 15.7135L194.593 20.8651L194.421 28.3991C194.426 28.4624 194.419 28.5262 194.401 28.5858C194.384 28.6453 194.356 28.6992 194.319 28.7432C194.283 28.7873 194.239 28.8205 194.19 28.8403C194.142 28.8601 194.091 28.866 194.041 28.8576H130.967H115.7H83.3248L78.6946 28.5969L78.5441 -11.204C78.5378 -11.2586 78.5419 -11.3142 78.5561 -11.3664C78.5702 -11.4186 78.5939 -11.4659 78.6253 -11.5044C78.6568 -11.543 78.695 -11.5717 78.7369 -11.5882C78.7788 -11.6047 78.8232 -11.6086 78.8666 -11.5996H92.3415V14.6706C92.3339 14.7247 92.3368 14.7802 92.35 14.8326C92.3632 14.8849 92.3862 14.9325 92.4171 14.9713C92.4481 15.0101 92.486 15.039 92.5277 15.0555C92.5695 15.072 92.6138 15.0757 92.6568 15.0662H102.756C102.797 15.0738 102.839 15.0692 102.878 15.0529C102.917 15.0366 102.953 15.009 102.982 14.9723C103.011 14.9356 103.033 14.8909 103.046 14.8416C103.059 14.7923 103.063 14.7399 103.057 14.6886V-11.195C103.051 -11.2455 103.055 -11.297 103.067 -11.3455C103.08 -11.394 103.101 -11.4382 103.13 -11.4747C103.158 -11.5112 103.193 -11.539 103.231 -11.556C103.269 -11.573 103.31 -11.5787 103.351 -11.5726H109.006H150.441H205.093C205.145 -11.5617 205.198 -11.5664 205.248 -11.5865C205.298 -11.6066 205.344 -11.6414 205.381 -11.688C205.418 -11.7347 205.446 -11.7918 205.462 -11.8546C205.478 -11.9174 205.482 -11.9841 205.473 -12.0491L205.373 -24.6358C205.377 -24.6947 205.371 -24.7542 205.355 -24.8098C205.339 -24.8654 205.313 -24.9157 205.28 -24.9572C205.246 -24.9986 205.205 -25.03 205.161 -25.049C205.116 -25.0681 205.068 -25.0744 205.022 -25.0674H157.222L130.989 -25.0224L124.007 -25.1033L115.156 -25.0494H101.838L68.4594 -25.1663C68.3894 -25.1781 68.3181 -25.1696 68.2512 -25.1412C68.1843 -25.1129 68.1235 -25.0656 68.0735 -25.0029C68.0236 -24.9403 67.9859 -24.864 67.9633 -24.78C67.9407 -24.6961 67.9338 -24.6067 67.9433 -24.5189V47.405V111.876L67.9863 145.896L54.3681 145.698V-41.6728C54.3681 -41.8254 54.4164 -41.9718 54.5024 -42.0797C54.5885 -42.1876 54.7051 -42.2482 54.8268 -42.2482L71.7349 -42.3201L84.278 -42.392L87.4102 -42.2482L96.9 -42.1943L116.338 -42.2482L122.667 -42.0774L181.003 -42.1853H205.158C205.2 -42.1774 205.244 -42.1823 205.285 -42.1995C205.325 -42.2168 205.362 -42.2459 205.392 -42.2845C205.422 -42.323 205.445 -42.37 205.458 -42.4215C205.47 -42.4731 205.473 -42.5277 205.466 -42.5808V-72.0966C205.46 -72.1483 205.464 -72.2009 205.477 -72.2505C205.49 -72.3001 205.512 -72.3452 205.541 -72.3826C205.57 -72.4199 205.605 -72.4484 205.645 -72.4658C205.684 -72.4833 205.726 -72.4892 205.767 -72.4832H209.107H232.76H288.881H298.55H309.387H321.164H340.573L357.818 -72.5731C357.861 -72.5803 357.905 -72.575 357.946 -72.5578C357.988 -72.5406 358.025 -72.5118 358.056 -72.4737C358.087 -72.4356 358.111 -72.3892 358.126 -72.3379C358.14 -72.2865 358.145 -72.2317 358.141 -72.1775L358.234 -67.3766V-55.9497C358.241 -55.8874 358.237 -55.8238 358.221 -55.7641C358.205 -55.7043 358.178 -55.65 358.143 -55.6055C358.107 -55.561 358.064 -55.5274 358.016 -55.5076C357.969 -55.4878 357.918 -55.4821 357.868 -55.4912H298.536L283.885 -55.6081L229.907 -55.3743L220.812 -55.5361C220.582 -55.6395 220.334 -55.6612 220.095 -55.5991C220.053 -55.6008 220.012 -55.5912 219.974 -55.5709C219.936 -55.5507 219.901 -55.5203 219.873 -55.4818C219.846 -55.4434 219.825 -55.3978 219.812 -55.3482C219.8 -55.2986 219.796 -55.2461 219.801 -55.1945V-11.9053L219.629 4.5563V46.3441V102.319C219.629 102.457 219.673 102.59 219.751 102.688C219.829 102.785 219.934 102.84 220.045 102.84L254.341 102.885C254.395 102.885 254.448 102.872 254.497 102.846C254.547 102.821 254.592 102.783 254.63 102.735C254.668 102.688 254.698 102.631 254.719 102.569C254.739 102.507 254.75 102.44 254.75 102.373V17.7364V-11.3389L261.566 -11.4378C271.562 -11.5876 281.578 -11.5876 291.612 -11.4378C292.013 -11.4378 292.128 -11.3389 291.956 -11.1411V5.0418L292.092 14.7875C292.087 14.8506 292.092 14.9146 292.109 14.9745C292.126 15.0345 292.153 15.089 292.189 15.1339C292.225 15.1789 292.268 15.2131 292.316 15.234C292.364 15.255 292.415 15.2622 292.465 15.255L302.499 15.1381C302.538 15.1442 302.577 15.1391 302.614 15.123C302.65 15.107 302.684 15.0805 302.711 15.0456C302.738 15.0108 302.758 14.9685 302.77 14.9221C302.782 14.8758 302.785 14.8266 302.779 14.7785V2.5784V-10.314C302.69 -10.6154 302.653 -10.9373 302.671 -11.258C302.671 -11.4737 302.872 -11.5816 303.195 -11.5816C306.927 -11.5816 310.706 -11.5816 314.534 -11.5816C314.576 -11.5891 314.62 -11.584 314.661 -11.5668C314.702 -11.5495 314.739 -11.5206 314.77 -11.4823C314.8 -11.4439 314.823 -11.3972 314.837 -11.3458C314.851 -11.2944 314.855 -11.2397 314.849 -11.186V-1.20659L314.978 28.462C314.978 28.5517 314.978 28.5517 314.978 28.6411C314.98 28.6687 314.98 28.6959 314.978 28.7227C314.965 28.7454 314.953 28.7695 314.942 28.7947L314.885 28.8396L314.828 28.8936H314.756H314.684H306.829H300.134L279.664 28.7767C279.608 28.7862 279.551 28.7791 279.498 28.7559C279.445 28.7328 279.397 28.6943 279.358 28.6435C279.319 28.5927 279.29 28.5311 279.273 28.4636C279.257 28.3962 279.253 28.3248 279.262 28.2552L279.363 3.43249C279.37 3.3646 279.365 3.29552 279.347 3.23071C279.329 3.16589 279.3 3.10715 279.261 3.05914C279.222 3.01114 279.175 2.9752 279.123 2.95417C279.071 2.93314 279.015 2.92762 278.961 2.93802L268.762 3.21673C268.717 3.21087 268.671 3.21785 268.629 3.23715C268.586 3.25645 268.548 3.28758 268.516 3.3282C268.484 3.36882 268.46 3.41789 268.446 3.47175C268.431 3.52561 268.427 3.58288 268.432 3.63928L268.533 42.0287C268.529 42.0675 268.533 42.1068 268.543 42.1436C268.554 42.1805 268.57 42.214 268.592 42.2416C268.614 42.2692 268.641 42.2903 268.67 42.3032C268.7 42.3162 268.731 42.3207 268.762 42.3164L292.831 42.2624L298.758 42.1725L307.266 42.3254H352.536H374.855H380.862H381.801C381.84 42.321 381.879 42.3277 381.916 42.3449C381.953 42.362 381.986 42.3892 382.014 42.4245C382.041 42.4597 382.062 42.5022 382.075 42.5488C382.087 42.5954 382.092 42.645 382.087 42.694V58.778C382.088 58.9174 382.045 59.0517 381.97 59.1536C381.894 59.2555 381.79 59.3172 381.679 59.3264L379.177 59.5422C375.83 59.2545 372.59 59.1376 369.48 59.2005C346.479 59.677 323.35 59.3354 300.106 59.3983L268.741 59.1016H268.676H268.612L268.554 59.1466L268.497 59.1915C268.483 59.2142 268.471 59.2383 268.461 59.2635C268.461 59.2635 268.461 59.2634 268.461 59.3264C268.461 59.3893 268.461 59.3893 268.461 59.4163C268.457 59.443 268.457 59.4705 268.461 59.4972V102.247C268.455 102.298 268.459 102.351 268.472 102.4C268.485 102.449 268.507 102.494 268.536 102.531C268.565 102.567 268.601 102.595 268.64 102.611C268.679 102.628 268.721 102.632 268.762 102.625H278.868C278.909 102.632 278.951 102.628 278.99 102.611C279.03 102.595 279.065 102.567 279.094 102.531C279.124 102.494 279.146 102.449 279.159 102.4C279.172 102.351 279.175 102.298 279.169 102.247V73.3516C279.163 73.299 279.167 73.2455 279.181 73.1952C279.194 73.1448 279.216 73.0991 279.246 73.0616C279.276 73.0241 279.313 72.9958 279.353 72.979C279.393 72.9623 279.436 72.9575 279.478 72.965H317.164L368.426 72.8391L392.674 72.7851C392.717 72.7926 392.762 72.7872 392.804 72.7695C392.846 72.7518 392.884 72.7222 392.915 72.6831C392.946 72.6439 392.97 72.5963 392.984 72.5438C392.998 72.4913 393.002 72.4355 392.996 72.3806V29.3161C393.003 29.2618 393 29.206 392.987 29.1534C392.974 29.1009 392.951 29.0529 392.92 29.0135C392.89 28.9741 392.852 28.9443 392.81 28.9266C392.769 28.9089 392.724 28.9037 392.681 28.9116H345.562H326.159C326.116 28.919 326.071 28.9136 326.029 28.8959C325.987 28.8782 325.949 28.8486 325.918 28.8095C325.887 28.7703 325.863 28.7226 325.849 28.6702C325.835 28.6177 325.831 28.5618 325.837 28.507L325.744 7.19052V-11.2849C325.744 -11.3573 325.766 -11.4269 325.806 -11.4789C325.846 -11.5309 325.901 -11.5613 325.959 -11.5636H326.955H368.777H368.842C368.863 -11.5554 368.885 -11.5554 368.906 -11.5636C368.923 -11.5595 368.94 -11.5595 368.956 -11.5636H369.007C369.011 -11.5873 369.011 -11.6119 369.007 -11.6356C369.022 -11.6526 369.035 -11.6742 369.042 -11.6985C369.042 -11.6985 369.042 -11.7525 369.042 -11.7794C369.046 -11.8032 369.046 -11.8275 369.042 -11.8513L368.913 -24.438C368.919 -24.4953 368.915 -24.5534 368.9 -24.608C368.885 -24.6626 368.86 -24.7122 368.828 -24.7531C368.795 -24.7939 368.756 -24.8248 368.712 -24.8434C368.669 -24.862 368.622 -24.8679 368.577 -24.8606H330.933H328.116H323.4H262.326L247.89 -24.9235L244.722 -25.1483H244.651H244.565L244.493 -25.0943L244.428 -25.0314C244.408 -25.0085 244.391 -24.9811 244.378 -24.9505C244.362 -24.9257 244.347 -24.8985 244.335 -24.8696C244.332 -24.8337 244.332 -24.7976 244.335 -24.7617C244.335 -24.7617 244.335 -24.7077 244.335 -24.6718V89.1748H230.925C230.883 89.1823 230.84 89.1775 230.8 89.1607C230.76 89.144 230.724 89.1157 230.694 89.0782C230.664 89.0407 230.641 88.995 230.628 88.9446C230.615 88.8943 230.611 88.8408 230.617 88.7882V-34.6692L230.696 -42.0864H280.23H293.956L353.941 -42.2572H368.863C368.906 -42.2481 368.949 -42.2517 368.99 -42.2678C369.031 -42.2839 369.069 -42.3119 369.1 -42.3496C369.13 -42.3873 369.154 -42.4336 369.167 -42.4848C369.181 -42.5359 369.185 -42.5904 369.179 -42.6438V-65.5156L369.021 -82.8852L369.071 -85.2317C369.075 -85.2826 369.075 -85.3337 369.071 -85.3846C369.075 -85.4384 369.075 -85.4926 369.071 -85.5464C369.071 -85.6003 369.021 -85.6453 368.999 -85.6903C368.978 -85.7372 368.954 -85.7823 368.928 -85.8251C368.895 -85.8602 368.859 -85.8904 368.82 -85.915C368.787 -85.9529 368.751 -85.9861 368.713 -86.0139H368.584C368.543 -86.0182 368.502 -86.0182 368.462 -86.0139H339.835H195.224C195.166 -86.0141 195.109 -85.9999 195.056 -85.9721C195.004 -85.9443 194.956 -85.9035 194.915 -85.8521C194.833 -85.7464 194.787 -85.6044 194.786 -85.4565V-55.7879C194.791 -55.7381 194.787 -55.6876 194.773 -55.6403C194.76 -55.5929 194.739 -55.5499 194.71 -55.5145C194.682 -55.4791 194.648 -55.4521 194.61 -55.4356C194.572 -55.4191 194.532 -55.4135 194.493 -55.4193H44.3336C44.1186 -55.4193 44.0111 -55.2934 44.0111 -55.0237V128.382L43.9537 145.896C40.2553 145.704 35.5893 145.704 29.9556 145.896C29.6976 145.896 29.5972 145.653 29.6474 145.132V-55.0417C29.6514 -55.0714 29.6514 -55.1018 29.6474 -55.1316C29.6474 -55.1316 29.6474 -55.2035 29.6474 -55.2305L29.6044 -55.3114C29.5918 -55.342 29.5748 -55.3694 29.5542 -55.3923C29.5542 -55.3923 29.5112 -55.3923 29.4897 -55.4462C29.4682 -55.5002 29.4539 -55.4462 29.4252 -55.5002H29.3464H29.2747L25.2394 -55.3384L17.8927 -55.3923H5.21343H-2.55613C-12.1128 -55.3563 -21.6694 -55.3563 -31.2261 -55.3923C-33.9856 -55.3923 -38.114 -55.716 -41.6476 -55.2934L-43.0023 -55.4912C-43.0455 -55.4853 -43.0892 -55.4917 -43.1301 -55.5101C-43.171 -55.5285 -43.208 -55.5583 -43.2384 -55.5973C-43.2688 -55.6362 -43.2917 -55.6834 -43.3054 -55.7351C-43.3192 -55.7868 -43.3233 -55.8417 -43.3176 -55.8958V-189H-53.861V-126.57V-64.5356V-42.6168C-53.8671 -42.5564 -53.8619 -42.495 -53.8459 -42.4375C-53.8299 -42.3799 -53.8035 -42.3278 -53.7688 -42.2852C-53.7341 -42.2426 -53.6921 -42.2105 -53.6459 -42.1917C-53.5997 -42.1728 -53.5507 -42.1675 -53.5027 -42.1763L-41.3179 -42.2842L-3.05069 -42.1403L2.68331 -42.2122L18.545 -42.2572C18.545 -42.41 18.5951 -42.473 18.7313 -42.464C18.764 -42.4643 18.7964 -42.4558 18.8263 -42.4392C18.8561 -42.4225 18.8828 -42.3981 18.9045 -42.3674C18.9263 -42.3368 18.9425 -42.3006 18.9522 -42.2615C18.9619 -42.2223 18.9648 -42.181 18.9607 -42.1403V-9.33401V101.51L18.9965 137.867L19.19 145.635L14.8895 145.932L5.62914 145.896C5.50171 145.891 5.38062 145.825 5.29115 145.711C5.20167 145.597 5.15072 145.444 5.14892 145.284L5.07724 125.811V89.4176C5.07724 89.1658 4.98408 89.04 4.78339 89.04H-5.1651C-5.20547 89.0339 -5.24642 89.0396 -5.28476 89.0566C-5.32311 89.0736 -5.35782 89.1014 -5.38622 89.1379C-5.41463 89.1744 -5.43596 89.2186 -5.44858 89.2671C-5.46119 89.3156 -5.46475 89.3671 -5.45897 89.4176V112.541V125.55V141.428V159.166C-5.45897 159.278 -5.42347 159.385 -5.36029 159.465C-5.29712 159.544 -5.21144 159.588 -5.12209 159.588H6.89062H23.7916H31.9267L43.9537 159.436L43.9896 173.82V375.028V399.23V415.161C43.9823 415.222 43.9866 415.285 44.002 415.343C44.0175 415.402 44.0436 415.455 44.0785 415.499C44.1133 415.543 44.1559 415.576 44.2026 415.595C44.2494 415.614 44.2992 415.62 44.3479 415.611H73.0179H77.5693C77.6719 415.611 77.7704 415.662 77.8429 415.753C77.9155 415.844 77.9563 415.967 77.9563 416.096L78.0136 432.711C78.0136 432.971 77.9133 433.097 77.7054 433.097H76.5873L48.0894 433.331L32.8298 433.385C31.7609 433.539 30.6781 433.376 29.6689 432.908V420.591L29.4611 406.764L29.5112 376.196V358.602L29.6976 281.823V235.639V206.699L29.6617 176.014C29.6674 175.95 29.6615 175.885 29.6444 175.824C29.6274 175.762 29.5995 175.707 29.5631 175.661C29.5266 175.616 29.4824 175.581 29.4337 175.559C29.385 175.538 29.3331 175.53 29.2819 175.537H27.3036L12.1014 175.699H-35.4047H-50.7073H-74.3601L-91.8917 175.564V146.202C-91.8858 146.148 -91.8898 146.093 -91.9036 146.042C-91.9173 145.99 -91.9404 145.944 -91.9709 145.905C-92.0015 145.867 -92.0387 145.838 -92.0797 145.821C-92.1207 145.804 -92.1643 145.798 -92.2071 145.806H-102.88H-108.427L-112.993 145.896V159.445H-109.022C-108.829 159.463 -108.635 159.463 -108.441 159.445H-102.923C-102.879 159.435 -102.835 159.439 -102.793 159.456C-102.751 159.472 -102.713 159.501 -102.681 159.54C-102.65 159.578 -102.626 159.626 -102.612 159.678C-102.598 159.73 -102.594 159.786 -102.6 159.84V174.926C-102.521 175.43 -102.6 175.681 -102.894 175.69C-104.475 175.744 -107.844 175.726 -113 175.636V188.843L-103.044 188.888C-102.957 188.888 -102.87 188.91 -102.79 188.953C-102.709 188.996 -102.636 189.059 -102.575 189.137C-102.515 189.216 -102.467 189.31 -102.435 189.412C-102.404 189.514 -102.389 189.624 -102.392 189.733L-102.6 204.784C-102.593 204.864 -102.593 204.946 -102.6 205.026C-102.597 205.064 -102.6 205.102 -102.61 205.138C-102.62 205.174 -102.636 205.206 -102.657 205.233C-102.679 205.26 -102.705 205.28 -102.733 205.293C-102.762 205.305 -102.792 205.309 -102.822 205.305H-112.993V218.917L-102.786 218.962L-102.865 234.434C-102.858 234.493 -102.862 234.554 -102.877 234.61C-102.891 234.667 -102.916 234.719 -102.95 234.762C-102.983 234.804 -103.024 234.837 -103.069 234.857C-103.114 234.876 -103.162 234.882 -103.209 234.875L-112.993 234.902V248.316L-92.2071 248.1C-92.1649 248.106 -92.1221 248.099 -92.082 248.082C-92.042 248.064 -92.0057 248.035 -91.976 247.996C-91.9463 247.958 -91.9239 247.912 -91.9105 247.861C-91.8972 247.811 -91.8932 247.757 -91.8989 247.704L-91.9849 218.989L-84.4734 218.935L-70.4466 218.863L-55.015 218.8H-54.2982C-54.2592 218.792 -54.2193 218.796 -54.1817 218.811C-54.1441 218.827 -54.1099 218.853 -54.082 218.888C-54.054 218.923 -54.0331 218.966 -54.0209 219.013C-54.0086 219.06 -54.0054 219.11 -54.0115 219.159V247.758C-54.0186 247.826 -54.013 247.896 -53.9954 247.961C-53.9777 248.026 -53.9483 248.085 -53.9095 248.134C-53.8708 248.182 -53.8236 248.219 -53.7717 248.241C-53.7198 248.263 -53.6645 248.27 -53.6102 248.262H-44.1921H-43.6402C-43.5956 248.273 -43.5496 248.27 -43.5061 248.254C-43.4625 248.237 -43.4228 248.208 -43.3903 248.168C-43.3579 248.128 -43.3336 248.079 -43.3197 248.025C-43.3058 247.971 -43.3026 247.913 -43.3105 247.857C-43.3105 233.742 -43.3559 219.627 -43.4467 205.512C-43.4467 205.152 -43.7334 205.026 -44.2853 205.161H-70.0309L-86.5161 205.206L-91.8487 205.233V189.554C-91.8546 189.499 -91.8504 189.443 -91.8363 189.39C-91.8221 189.338 -91.7986 189.29 -91.7673 189.251C-91.7361 189.212 -91.6981 189.182 -91.6563 189.165C-91.6145 189.147 -91.5699 189.142 -91.5262 189.149L-71.9231 189.05L-44.1491 188.987L-18.6973 188.906L0.0671755 189.014L18.5736 189.095C18.6186 189.088 18.6643 189.094 18.7072 189.112C18.7501 189.13 18.7892 189.16 18.8216 189.2C18.854 189.24 18.8788 189.288 18.8942 189.342C18.9096 189.395 18.9152 189.452 18.9105 189.509V211.428V224.302L19.1184 277.094V338.553V388.163V406.881V446.7C19.1202 446.813 19.1573 446.92 19.2216 446.999C19.286 447.078 19.3724 447.122 19.4624 447.122H67.2194L101.724 447.014C101.791 447.002 101.859 447.01 101.924 447.037C101.988 447.064 102.047 447.109 102.095 447.17C102.143 447.23 102.179 447.303 102.2 447.384C102.222 447.465 102.228 447.55 102.218 447.635V488.991H112.876V447.635C112.87 447.581 112.874 447.526 112.888 447.475C112.902 447.424 112.925 447.377 112.956 447.339C112.986 447.3 113.023 447.271 113.064 447.254C113.105 447.237 113.149 447.232 113.192 447.239H150.412H169.457L169.313 473.716L169.27 489H180.079L180.115 462.316V447.608C180.058 447.541 180.026 447.449 180.024 447.352C180.022 447.255 180.051 447.161 180.104 447.091C180.157 447.02 180.23 446.98 180.308 446.977C180.385 446.974 180.46 447.011 180.516 447.077H186.049H205.308C205.344 447.083 205.379 447.079 205.413 447.064C205.447 447.05 205.478 447.027 205.503 446.996C205.529 446.965 205.548 446.927 205.56 446.885C205.573 446.843 205.577 446.798 205.573 446.754L205.495 433.646C205.502 433.594 205.498 433.541 205.484 433.491C205.469 433.442 205.445 433.398 205.414 433.363C205.382 433.329 205.344 433.306 205.303 433.295C205.262 433.285 205.219 433.288 205.179 433.304ZM54.3681 159.795C54.3681 159.693 54.4006 159.594 54.4584 159.522C54.5162 159.449 54.5945 159.409 54.6763 159.409H67.6351C67.6744 159.401 67.7145 159.405 67.7523 159.421C67.7902 159.436 67.8246 159.462 67.8531 159.497C67.8815 159.532 67.9032 159.574 67.9163 159.621C67.9295 159.668 67.9338 159.719 67.929 159.768V161.045V179.026V201.781V227.188V247.704C67.929 247.816 67.9645 247.924 68.0276 248.003C68.0908 248.082 68.1765 248.127 68.2659 248.127H86.7938H103.351H113.643L122.502 248.181L169.163 248.109L169.12 263.222C169.118 263.296 169.101 263.369 169.071 263.433C169.041 263.498 168.998 263.552 168.948 263.59C168.894 263.633 168.832 263.658 168.768 263.662H83.9483H54.4971L54.3681 219.555V159.795Z" stroke="white" stroke-miterlimit="10"/>
</svg>
