<svg width="531" height="225" viewBox="0 0 531 225" fill="currentColor" xmlns="http://www.w3.org/2000/svg">
<path d="M0.5 0.5V9.50199H62.9268V224.5H72.6226V9.50199H135.067V0.5H0.5Z" stroke="currentColor" stroke-miterlimit="10"/>
<path d="M95.2344 59.7068C97.8495 55.644 101.772 52.5942 106.353 51.0606C110.883 49.4598 115.825 49.4598 120.355 51.0606L119.163 56.5401C114.531 55.4865 109.682 55.9802 105.357 57.9455C100.98 59.8369 97.3995 63.1968 95.2344 67.4456V117.882H86.8906V50.7937H95.2344V59.7068Z" stroke="currentColor" stroke-miterlimit="10"/>
<path d="M157.804 112.509C160.869 112.307 163.877 111.585 166.699 110.374C172.463 107.947 177.162 103.526 179.935 97.9207L188.421 99.0593C185.736 104.463 181.689 109.073 176.68 112.438C171.711 115.834 165.912 117.815 159.903 118.166C153.886 118.526 147.88 117.299 142.486 114.608C137.053 111.999 132.434 107.958 129.126 102.92C128.062 101.204 127.112 99.4215 126.279 97.5827C124.468 93.5837 123.479 89.2612 123.372 84.8724C123.265 80.4835 124.042 76.118 125.657 72.0355C128.772 63.7276 134.999 56.9587 143.019 53.163C151.038 49.3673 160.221 48.8429 168.621 51.701C172.803 53.0311 176.676 55.1893 180.007 58.047C183.339 60.9047 186.061 64.4035 188.012 68.3351C188.404 69.1001 188.724 69.7939 189.009 70.47C189.576 71.6167 190.052 72.8064 190.432 74.0281L136.598 99.6286C138.704 103.422 141.772 106.595 145.493 108.826C149.222 111.069 153.456 112.336 157.804 112.509ZM133.876 94.0957L180.736 71.8754C178.797 67.3127 175.609 63.3905 171.538 60.5607C167.522 57.6803 162.743 56.0523 157.804 55.8818C154.323 55.8949 150.887 56.6748 147.742 58.1661C144.596 59.6574 141.818 61.8234 139.604 64.5102C134.64 69.8157 131.886 76.814 131.901 84.0797C131.895 87.5157 132.566 90.9192 133.876 94.0957Z" stroke="currentColor" fill="currentColor" stroke-miterlimit="10"/>
<path d="M261.273 50.2244H269.617V117.828H261.273V106.353C256.71 111.628 250.643 115.382 243.886 117.111C237.129 118.841 230.005 118.464 223.468 116.031C216.91 113.652 211.249 109.302 207.261 103.578C203.238 97.8453 201.08 91.012 201.08 84.0085C201.08 77.0051 203.238 70.1718 207.261 64.439C211.259 58.7246 216.917 54.3771 223.468 51.9857C230.01 49.5009 237.166 49.1337 243.928 50.936C250.726 52.6461 256.802 56.4787 261.273 61.8772V50.2244ZM217.171 103.792C219.358 106.512 222.128 108.707 225.276 110.216C228.424 111.724 231.871 112.507 235.361 112.507C238.852 112.507 242.299 111.724 245.447 110.216C248.595 108.707 251.365 106.512 253.552 103.792C258.515 98.4555 261.274 91.4383 261.274 84.1508C261.274 76.8634 258.515 69.8462 253.552 64.5101C251.35 61.8126 248.575 59.6386 245.429 58.1457C242.283 56.6527 238.844 55.8782 235.361 55.8782C231.879 55.8782 228.44 56.6527 225.294 58.1457C222.148 59.6386 219.373 61.8126 217.171 64.5101C212.219 69.852 209.468 76.8671 209.468 84.1508C209.468 91.4346 212.219 98.4497 217.171 103.792Z" fill="currentColor" stroke="currentColor" stroke-miterlimit="10"/>
<path d="M318.594 81.6424C321.61 82.4553 324.509 83.6511 327.222 85.2005C329.273 86.33 331.085 87.8464 332.559 89.6659C333.671 91.0605 334.532 92.6376 335.103 94.327C335.571 95.8428 335.811 97.4196 335.815 99.0059C335.782 101.671 335.101 104.289 333.83 106.632C332.559 108.975 330.737 110.974 328.521 112.456C323.374 116.231 317.11 118.172 310.73 117.971C304.751 118.066 298.868 116.469 293.758 113.363C288.741 110.303 285.776 106.508 284.863 101.977L290.538 100.838C292.431 104.444 295.329 107.422 298.882 109.413C302.614 111.351 306.781 112.296 310.984 112.159C315.186 112.022 319.283 110.807 322.881 108.631C324.498 107.607 325.822 106.183 326.726 104.496C327.63 102.81 328.083 100.919 328.04 99.0059C328.04 94.8429 324.162 91.783 316.441 89.8082C315.018 89.4346 312.616 88.9543 309.218 88.385L304.254 87.3887C299.136 86.54 294.373 84.2293 290.538 80.7351C288.957 79.2775 287.698 77.5051 286.844 75.5319C285.989 73.5587 285.556 71.4284 285.574 69.278C285.595 66.5904 286.27 63.9482 287.541 61.58C288.811 59.2118 290.64 57.1888 292.869 55.6861C298.053 51.9042 304.352 49.9631 310.766 50.171C315.139 50.1544 319.437 51.3027 323.219 53.4979C327.034 55.6787 330.206 58.8266 332.417 62.6244L327.08 65.0261C325.358 62.2314 322.952 59.9227 320.088 58.3191C317.252 56.7299 314.052 55.9025 310.801 55.9174C307.843 55.9299 304.932 56.6561 302.315 58.0344C299.815 59.2678 297.617 61.0351 295.875 63.2115C294.446 64.8978 293.625 67.0156 293.545 69.2247C293.545 74.1348 297.696 77.4854 305.998 79.2763C306.745 79.3652 308.311 79.6499 310.659 80.1302C314.342 80.7529 316.992 81.2688 318.594 81.6424Z" stroke="currentColor" fill="currentColor" stroke-miterlimit="10"/>
<path d="M399.274 50.509H407.635V117.882H399.274V106.549C396.808 109.435 393.835 111.847 390.503 113.665C388.682 114.616 386.791 115.424 384.846 116.085C381.042 117.285 377.075 117.885 373.086 117.864C367.56 118.096 362.151 116.228 357.946 112.633C357.45 112.231 356.975 111.804 356.523 111.352C354.044 108.574 352.151 105.323 350.959 101.796C349.766 98.2676 349.299 94.5352 349.585 90.8223V50.509H357.946V90.8401C357.673 93.5003 357.939 96.1883 358.728 98.7437C359.516 101.299 360.812 103.669 362.536 105.713C365.459 108.492 369.273 110.144 373.3 110.374C379.563 111.097 385.877 109.543 391.09 105.998C393.615 104.368 395.681 102.12 397.091 99.4672C398.502 96.8141 399.21 93.8442 399.149 90.8401L399.274 50.509Z" stroke="currentColor" fill="currentColor" stroke-miterlimit="10"/>
<path d="M434.374 59.7067C437.014 55.6371 440.96 52.5876 445.564 51.0606C450.1 49.4599 455.047 49.4599 459.583 51.0606L458.302 56.54C453.67 55.4878 448.822 55.9815 444.497 57.9455C440.123 59.8419 436.544 63.2004 434.374 67.4456V117.882H426.03V50.7937H434.374V59.7067Z" stroke="currentColor" fill="currentColor" stroke-miterlimit="10"/>
<path d="M496.944 112.509C500.039 112.317 503.078 111.595 505.928 110.374C511.692 107.947 516.391 103.526 519.164 97.9207L527.65 99.0592C524.976 104.47 520.927 109.083 515.909 112.438C510.94 115.834 505.14 117.815 499.132 118.166C493.121 118.528 487.12 117.301 481.733 114.608C476.295 111.999 471.67 107.958 468.355 102.92C467.29 101.208 466.345 99.4245 465.526 97.5826C463.708 93.586 462.714 89.2638 462.604 84.8743C462.493 80.4848 463.27 76.1182 464.885 72.0355C467.994 63.7206 474.217 56.9424 482.237 53.1368C490.256 49.3311 499.443 48.797 507.849 51.6476C512.03 52.9832 515.899 55.1434 519.23 58.0005C522.561 60.8576 525.285 64.3536 527.241 68.2817C527.615 69.0467 527.935 69.7405 528.22 70.4166C528.795 71.5598 529.271 72.7502 529.643 73.9747L475.702 99.6285C477.809 103.421 480.877 106.593 484.597 108.826C488.335 111.078 492.583 112.345 496.944 112.509ZM473.016 94.0957L519.876 71.8754C517.937 67.3126 514.749 63.3904 510.678 60.5606C506.662 57.6802 501.883 56.0523 496.944 55.8817C493.465 55.8938 490.032 56.6734 486.889 58.1648C483.746 59.6563 480.971 61.8229 478.762 64.5101C473.784 69.808 471.021 76.8098 471.041 84.0797C471.035 87.5156 471.706 90.9192 473.016 94.0957Z" stroke="currentColor" fill="currentColor" stroke-miterlimit="10"/>
<path d="M93.402 165.827C96.0499 161.799 99.9606 158.764 104.52 157.199C109.08 155.634 114.03 155.628 118.593 157.181L117.312 162.714C112.687 161.66 107.843 162.154 103.525 164.119C99.1485 166.003 95.568 169.357 93.402 173.601V224.002H85.0049V156.896H93.3664L93.402 165.827Z" fill="currentColor"/>
<path d="M181.857 156.345H190.218V223.948H181.857V212.474C177.301 217.754 171.238 221.513 164.483 223.247C157.728 224.98 150.605 224.604 144.07 222.169C137.511 219.79 131.85 215.44 127.862 209.716C123.84 203.983 121.681 197.15 121.681 190.147C121.681 183.143 123.84 176.31 127.862 170.577C131.872 164.859 137.53 160.5 144.081 158.081C150.632 155.662 157.765 155.299 164.529 157.038C171.314 158.746 177.382 162.565 181.857 167.944V156.345ZM137.772 209.912C139.963 212.627 142.734 214.816 145.882 216.321C149.029 217.825 152.474 218.606 155.962 218.606C159.451 218.606 162.896 217.825 166.043 216.321C169.191 214.816 171.962 212.627 174.153 209.912C179.105 204.57 181.856 197.555 181.856 190.271C181.856 182.987 179.105 175.972 174.153 170.63C171.951 167.933 169.176 165.759 166.03 164.266C162.884 162.773 159.445 161.998 155.962 161.998C152.48 161.998 149.041 162.773 145.895 164.266C142.749 165.759 139.974 167.933 137.772 170.63C132.809 175.966 130.05 182.984 130.05 190.271C130.05 197.558 132.809 204.576 137.772 209.912Z" fill="currentColor"/>
<path d="M239.604 218.611C244.269 218.451 248.802 217.026 252.719 214.487C256.636 211.949 259.79 208.393 261.842 204.201L270.328 205.055C267.097 212.118 261.45 217.796 254.405 221.066C247.414 224.413 239.494 225.29 231.94 223.554C224.385 221.819 217.642 217.573 212.812 211.51C207.983 205.448 205.351 197.926 205.348 190.175C205.344 182.424 207.969 174.9 212.793 168.834C217.538 162.686 224.308 158.419 231.9 156.789C239.473 155.03 247.422 155.935 254.405 159.351C261.45 162.622 267.097 168.3 270.328 175.363L261.699 176.056C259.583 171.978 256.423 168.533 252.541 166.074C248.66 163.614 244.196 162.228 239.604 162.055C236.126 162.071 232.694 162.852 229.551 164.344C226.409 165.835 223.634 167.999 221.422 170.684C216.459 176.02 213.7 183.037 213.7 190.324C213.7 197.612 216.459 204.629 221.422 209.965C223.627 212.658 226.401 214.83 229.544 216.325C232.688 217.82 236.123 218.601 239.604 218.611Z" fill="currentColor"/>
<path d="M299.345 182.105C302.179 184.655 304.96 187.294 307.688 190.022C310.416 192.75 313.624 196.172 317.313 200.287C320.817 204.183 324.011 208.347 326.866 212.741C329.25 216.203 331.052 220.031 332.204 224.073H323.397C321.606 218.878 317.781 212.699 311.922 205.535C306.428 198.75 300.566 192.27 294.363 186.126L292.815 187.549V224.073H284.472V130.726H292.815V179.686L319.839 157.75L323.646 162.429L299.345 182.105Z" fill="currentColor"/>
</svg>
