<svg width="423" height="265" viewBox="0 0 423 265" fill="none" xmlns="http://www.w3.org/2000/svg">
<path d="M422.478 259.478C422.478 191.962 422.478 124.445 422.478 56.929C422.771 50.9042 421.774 44.8863 419.554 39.2777C417.734 35.1959 416.079 31.0588 414.038 26.9218L413.155 25.8186C407.683 17.7808 400.254 11.269 391.568 6.89723C382.883 2.52547 373.227 0.437773 363.511 0.830962V0.5L54.2269 0.830962C47.8507 1.05157 41.5611 2.37668 35.6379 4.74735C27.1319 8.0689 19.5601 13.407 13.5737 20.3026C5.08377 29.9675 0.432508 42.4101 0.50074 55.2742V256.223C0.50074 258.981 0.50074 261.739 0.50074 264.497C3.4794 264.497 6.4029 264.497 9.38156 264.497H299.58H311.054H312.598H419.83C420.182 264.513 420.533 264.455 420.861 264.328C421.19 264.2 421.488 264.006 421.737 263.757C421.986 263.508 422.18 263.21 422.308 262.881C422.435 262.553 422.493 262.202 422.478 261.85C422.478 261.188 422.478 260.36 422.478 259.478ZM19.8069 251.038C18.9508 251.117 18.0878 251.013 17.2751 250.733C16.4624 250.452 15.7184 250.003 15.0926 249.413C14.4667 248.824 13.9732 248.109 13.6448 247.314C13.3164 246.52 13.1606 245.664 13.1876 244.805C13.1956 243.9 13.3957 243.007 13.7746 242.184C14.1534 241.362 14.7025 240.629 15.3855 240.035C16.0685 239.441 16.8699 238.998 17.7366 238.736C18.6034 238.475 19.5158 238.4 20.4136 238.517C21.2815 238.489 22.1456 238.642 22.9516 238.965C23.7577 239.287 24.4881 239.774 25.0969 240.393C25.7058 241.012 26.1798 241.75 26.4892 242.561C26.7986 243.373 26.9366 244.239 26.8946 245.106C26.8526 245.974 26.6314 246.823 26.245 247.6C25.8587 248.378 25.3154 249.067 24.6496 249.624C23.9837 250.182 23.2097 250.595 22.3763 250.838C21.5428 251.082 20.668 251.15 19.8069 251.038ZM291.141 251.038C290.287 251.082 289.434 250.941 288.639 250.625C287.845 250.309 287.127 249.827 286.536 249.209C285.945 248.592 285.493 247.854 285.212 247.047C284.931 246.239 284.827 245.381 284.908 244.529C284.908 240.337 287.114 238.462 291.417 238.517C295.719 238.572 296.933 240.944 297.374 245.026C297.382 245.832 297.226 246.631 296.916 247.375C296.607 248.119 296.149 248.792 295.572 249.354C294.994 249.916 294.309 250.356 293.556 250.645C292.804 250.934 292.001 251.068 291.196 251.038H291.141ZM297.539 167.691C297.539 180.157 297.539 192.679 297.539 205.145C297.539 207.958 297.539 210.661 297.539 213.529C297.539 216.398 297.539 219.045 297.539 221.362C297.539 223.679 297.043 224.727 294.23 224.837C290.085 225.068 286.089 226.464 282.701 228.864C279.347 231.15 276.516 234.121 274.395 237.583C272.275 241.044 270.913 244.916 270.4 248.942C269.904 251.921 269.904 251.976 267.091 252.031H47.0561C41.5401 252.031 41.5401 252.031 40.2714 246.515C39.3837 241.028 36.763 235.968 32.7929 232.078C28.8227 228.187 23.7115 225.669 18.2072 224.892C13.1325 223.899 13.1325 223.899 13.1876 218.383V217.942V103.871C13.1876 102.602 13.1876 101.333 13.1876 100.064C13.1876 97.4719 13.6841 97.0306 16.1663 96.8651C20.3898 96.5239 24.4734 95.1924 28.0864 92.9787C31.6993 90.7649 34.7399 87.7311 36.9617 84.1231L37.9546 83.1854C39.0027 79.269 40.161 75.3526 41.0988 71.4362C41.1249 71.1856 41.2027 70.9431 41.3274 70.7241C41.4521 70.5051 41.6209 70.3143 41.8231 70.164C42.0253 70.0136 42.2566 69.9069 42.5022 69.8505C42.7478 69.7941 43.0025 69.7894 43.25 69.8366H125.991C126.873 69.8366 127.756 69.8366 128.638 69.8366C129.521 69.8366 130.79 70.4985 130.734 71.9878C130.734 75.8491 130.734 79.6551 130.734 83.4612C130.734 86.2192 130.734 88.9772 130.734 91.6801C130.835 95.9082 131.427 100.11 132.499 104.201C134.022 108.081 136.679 111.412 140.123 113.76C143.566 116.108 147.638 117.363 151.806 117.363C155.974 117.363 160.045 116.108 163.489 113.76C166.932 111.412 169.589 108.081 171.112 104.201C171.846 102.597 172.312 100.882 172.491 99.1267L173.042 84.5092C173.042 80.0412 172.656 75.6284 172.546 71.2156C172.546 70.7743 173.318 70.0572 173.815 69.9469C174.841 69.8357 175.877 69.8357 176.904 69.9469H268.415C269.628 69.9469 270.235 70.3882 270.456 71.6569C270.707 74.8549 271.298 78.0169 272.221 81.0893C272.987 82.4872 273.873 83.816 274.868 85.0608C278.835 90.5601 284.554 94.5475 291.086 96.3687C291.747 96.3687 292.354 96.8651 293.016 96.9755C297.594 97.7477 297.594 97.6926 297.65 101.995C297.705 106.298 297.65 109.166 297.981 112.696C298.312 116.226 297.981 118.212 297.594 121.025V158.259V167.691H297.539ZM13.1325 76.2903C13.3142 74.6931 14.0005 73.1954 15.0917 72.015C16.1829 70.8345 17.6221 70.0328 19.2001 69.7263C20.9862 69.5866 22.7564 70.1476 24.1361 71.2904C25.5157 72.4333 26.3964 74.0682 26.5916 75.8491C26.6071 76.6957 26.4499 77.5367 26.1297 78.3206C25.8094 79.1046 25.3328 79.815 24.7288 80.4086C24.1249 81.0022 23.4063 81.4666 22.617 81.7733C21.8277 82.08 20.9841 82.2226 20.1378 82.1925C18.4312 82.3158 16.7439 81.7679 15.4354 80.6654C14.1269 79.5629 13.3006 77.9931 13.1325 76.2903ZM156.825 91.5146C157.668 94.4723 158.35 97.4738 158.866 100.506C159.307 103.374 158.866 103.705 155.832 103.815C154.619 103.815 153.405 103.815 152.192 103.815C150.355 103.945 148.512 103.945 146.676 103.815C146.374 103.803 146.08 103.718 145.818 103.567C145.556 103.417 145.335 103.205 145.172 102.951C145.01 102.696 144.911 102.406 144.885 102.105C144.859 101.804 144.905 101.502 145.021 101.223C145.738 98.4096 146.29 95.7068 147.172 92.7281C147.681 91.4561 147.832 90.069 147.608 88.7174C147.384 87.3658 146.795 86.1012 145.903 85.0608C145.238 84.3324 144.724 83.479 144.391 82.5501C144.058 81.6212 143.913 80.6355 143.964 79.6501C144.015 78.6646 144.262 77.6993 144.69 76.81C145.117 75.9208 145.717 75.1254 146.455 74.47C147.179 73.6665 148.064 73.0241 149.052 72.5844C150.04 72.1446 151.11 71.9174 152.192 71.9174C153.273 71.9174 154.343 72.1446 155.331 72.5844C156.319 73.0241 157.204 73.6665 157.928 74.47C159.428 75.893 160.305 77.8513 160.367 79.9179C160.429 81.9845 159.671 83.9918 158.259 85.5021C157.447 86.2465 156.877 87.217 156.621 88.2886C156.365 89.3602 156.437 90.4838 156.825 91.5146ZM285.018 76.0145C284.964 75.1692 285.087 74.322 285.377 73.5264C285.668 72.7308 286.12 72.0042 286.706 71.3924C287.292 70.7807 287.998 70.2971 288.781 69.9724C289.563 69.6476 290.404 69.4887 291.251 69.5056C292.949 69.6816 294.522 70.476 295.671 71.7374C296.821 72.9988 297.466 74.639 297.484 76.3455C297.484 79.1035 294.285 83.1854 291.968 82.7441C289.889 82.4448 287.908 81.671 286.176 80.4825C285.239 79.7103 285.073 77.7245 285.018 76.2352V76.0145ZM324.623 52.9023C325.055 47.7289 326.439 42.6797 328.705 38.009C332.506 29.8209 338.958 23.1547 347.018 19.089C352.056 16.1622 357.743 14.5322 363.566 14.3453C370.966 13.7987 378.384 15.1267 385.134 18.2065C390.416 20.7939 395.119 24.4252 398.959 28.8812C402.799 33.3371 405.695 38.5251 407.474 44.1318C408.264 47.4636 408.744 50.8612 408.908 54.2814C408.908 55.4949 408.412 56.212 407.088 56.1568H328.098C324.568 56.1568 324.458 56.1016 324.623 52.9023ZM409.018 217.832C409.018 218.714 409.018 219.542 409.018 220.424C409.018 224.065 408.577 224.782 404.992 224.892C402.43 225.126 399.938 225.857 397.655 227.044C394.024 228.615 390.797 230.991 388.217 233.991C385.637 236.992 383.772 240.538 382.762 244.364C382.357 245.488 382.079 246.653 381.935 247.839C381.604 252.086 381.935 252.142 377.191 252.142H354.244C352.589 252.142 351.707 251.7 351.707 249.825C351.638 245.4 350.39 241.074 348.092 237.293C345.794 233.512 342.529 230.411 338.634 228.312C335.927 226.926 333.079 225.835 330.139 225.058C329.477 225.058 328.76 225.058 328.098 224.727C324.678 223.844 324.623 223.844 324.623 220.314C324.623 207.462 324.623 194.664 324.623 181.702V103.54C324.623 102.326 324.623 101.112 324.623 99.899C324.623 97.0306 324.623 96.9755 327.381 96.81C331.001 96.5968 334.534 95.6101 337.74 93.9164C340.947 92.2227 343.753 89.8614 345.97 86.9914C346.874 85.6993 348.093 84.6607 349.513 83.9749C350.933 83.2892 352.505 82.9794 354.079 83.0751C362.904 83.0751 371.785 83.0751 380.611 83.0751C381.98 82.9485 383.357 83.2005 384.593 83.8036C385.828 84.4068 386.874 85.3378 387.616 86.495C389.677 89.5179 392.395 92.0356 395.566 93.8601C398.738 95.6845 402.28 96.7684 405.929 97.0306C409.074 97.4168 409.129 97.3616 409.129 100.782C409.129 108.89 409.129 117.054 409.129 125.218L409.018 217.832Z" stroke="currentColor" stroke-linecap="round" stroke-linejoin="round"/>
<path d="M13.7384 56.1569H309.784C309.784 38.6159 319.934 17.5446 339.295 11.2012H56.2119C24.3292 16.8827 12.5249 42.6426 13.7384 56.1569Z" stroke="currentColor" stroke-linecap="round" stroke-linejoin="round"/>
</svg>
